HIERARCHY
ROOT Hips
{
	OFFSET -0.000012 104.274902 0.000012
	CHANNELS 6 Xposition Yposition Zposition Xrotation Yrotation Zrotation
	JOINT Spine
	{
		OFFSET 0.131523 10.181549 0.000001
		CHANNELS 6 Xposition Yposition Zposition Xrotation Yrotation Zrotation
		JOINT Spine2
		{
			OFFSET -2.841345 19.114777 0.000002
			CHANNELS 6 Xposition Yposition Zposition Xrotation Yrotation Zrotation
			JOINT Neck
			{
				OFFSET -2.049024 16.740372 0.000002
				CHANNELS 6 Xposition Yposition Zposition Xrotation Yrotation Zrotation
				JOINT Head
				{
					OFFSET 1.684975 9.617859 0.000001
					CHANNELS 6 Xposition Yposition Zposition Xrotation Yrotation Zrotation
					End Site
					{
						OFFSET -2.828249 23.106567 0.000003
					}
				}
			}
			JOINT RightShoulder
			{
				OFFSET -2.160842 11.014877 4.570002
				CHANNELS 6 Xposition Yposition Zposition Xrotation Yrotation Zrotation
				JOINT RightArm
				{
					OFFSET -2.232106 -0.524796 10.592867
					CHANNELS 6 Xposition Yposition Zposition Xrotation Yrotation Zrotation
					JOINT RightForeArm
					{
						OFFSET -0.000004 0.000000 27.841496
						CHANNELS 6 Xposition Yposition Zposition Xrotation Yrotation Zrotation
						JOINT RightHand
						{
							OFFSET -0.000003 -0.000015 28.328812
							CHANNELS 6 Xposition Yposition Zposition Xrotation Yrotation Zrotation
							End Site
							{
								OFFSET -0.000001 0.000000 8.226791
							}
						}
					}
				}
			}
			JOINT LeftShoulder
			{
				OFFSET -2.160816 11.014679 -4.570400
				CHANNELS 6 Xposition Yposition Zposition Xrotation Yrotation Zrotation
				JOINT LeftArm
				{
					OFFSET -2.232115 -0.524597 -10.592373
					CHANNELS 6 Xposition Yposition Zposition Xrotation Yrotation Zrotation
					JOINT LeftForeArm
					{
						OFFSET 0.000003 0.000000 -27.841488
						CHANNELS 6 Xposition Yposition Zposition Xrotation Yrotation Zrotation
						JOINT LeftHand
						{
							OFFSET 0.000001 0.000015 -28.328808
							CHANNELS 6 Xposition Yposition Zposition Xrotation Yrotation Zrotation
							End Site
							{
								OFFSET 0.000001 0.000000 -8.227859
							}
						}
					}
				}
			}
		}
	}
	JOINT RightUpLeg
	{
		OFFSET -1.599544 -6.751701 8.207800
		CHANNELS 6 Xposition Yposition Zposition Xrotation Yrotation Zrotation
		JOINT RightLeg
		{
			OFFSET 0.345939 -44.370152 -0.000010
			CHANNELS 6 Xposition Yposition Zposition Xrotation Yrotation Zrotation
			JOINT RightFoot
			{
				OFFSET -3.043530 -44.423664 -0.000010
				CHANNELS 6 Xposition Yposition Zposition Xrotation Yrotation Zrotation
				JOINT RightToeBase
				{
					OFFSET 10.710592 -8.728689 -0.000001
					CHANNELS 6 Xposition Yposition Zposition Xrotation Yrotation Zrotation
					End Site
					{
						OFFSET 9.278101 -0.000664 0.000000
					}
				}
			}
		}
	}
	JOINT LeftUpLeg
	{
		OFFSET -1.599543 -6.751701 -8.207800
		CHANNELS 6 Xposition Yposition Zposition Xrotation Yrotation Zrotation
		JOINT LeftLeg
		{
			OFFSET 0.346945 -44.370037 -0.000010
			CHANNELS 6 Xposition Yposition Zposition Xrotation Yrotation Zrotation
			JOINT LeftFoot
			{
				OFFSET -3.044383 -44.423611 -0.000010
				CHANNELS 6 Xposition Yposition Zposition Xrotation Yrotation Zrotation
				JOINT LeftToeBase
				{
					OFFSET 10.710592 -8.728688 -0.000001
					CHANNELS 6 Xposition Yposition Zposition Xrotation Yrotation Zrotation
					End Site
					{
						OFFSET 9.278101 -0.000679 0.000000
					}
				}
			}
		}
	}
}
MOTION
Frames: 4
Frame Time: 0.041667
428.255615 94.977959 0.408064 -1.740315 -3.259916 -10.476868 0.131587 10.181568 0.000001 0.789615 16.939047 -2.898513 -2.841323 19.114780 0.000008 0.068030 2.213572 0.140196 -2.049046 16.740398 -0.000009 -2.860078 -3.432767 -4.493645 1.684978 9.617887 0.000012 3.159586 -12.346037 16.408375 -2.160842 11.014891 4.569993 3.280647 4.027484 -1.505474 -2.232084 -0.524739 10.592896 52.432968 9.127134 -5.183136 -0.000007 0.000006 27.841503 0.000015 121.115373 0.000183 0.000020 0.000018 28.328823 -19.029870 -19.891492 -13.933026 -2.160837 11.014733 -4.570396 -3.238331 -8.037423 -2.989555 -2.232114 -0.524629 -10.592381 -39.522756 59.810689 -34.076237 -0.000005 0.000013 -27.841476 -0.000172 -79.693595 -0.000361 0.000070 -0.000002 -28.328812 -0.283539 6.068712 17.739746 -1.599481 -6.751685 8.207801 1.903410 -7.108253 -18.318984 0.345934 -44.370144 -0.000007 -1.292667 12.499382 -33.343201 -3.043527 -44.423717 -0.000008 12.067903 -3.203421 -27.905317 10.710567 -8.728687 -0.000006 0.000001 -0.000001 -0.095134 -1.599476 -6.751683 -8.207801 10.183553 -1.963880 55.996438 0.346942 -44.370033 -0.000021 3.891949 13.031767 -59.339133 -3.044374 -44.423618 -0.000006 4.843977 0.217837 1.934732 10.710564 -8.728736 0.000003 0.000002 0.000002 0.279047 
452.843262 95.216736 0.668964 -1.413828 -1.346223 -8.930646 0.131487 10.181556 0.000003 0.955008 14.719524 -5.325825 -2.841310 19.114756 0.000010 -0.046180 1.928814 0.056504 -2.049034 16.740334 0.000030 -3.816484 -3.337337 -2.831527 1.684979 9.617884 0.000011 3.708820 -11.856444 17.219373 -2.160855 11.014901 4.570033 3.215677 4.490030 -1.596924 -2.232075 -0.524750 10.592877 60.001518 0.935167 -12.222495 -0.000049 -0.000004 27.841522 0.000035 114.952794 0.000159 0.000021 -0.000042 28.328808 -20.022604 -12.680683 -11.052136 -2.160808 11.014665 -4.570366 -6.728533 -9.331694 -4.068024 -2.232110 -0.524592 -10.592394 -55.100161 51.224937 -15.620166 0.000002 0.000010 -27.841513 -0.000053 -76.250681 -0.000198 -0.000021 0.000013 -28.328794 9.931117 0.357529 22.382614 -1.599572 -6.751683 8.207800 4.113535 -6.398653 -14.072121 0.345909 -44.370148 -0.000009 -0.748350 9.137662 -64.385359 -3.043524 -44.423645 -0.000009 13.316185 -3.968558 -26.794388 10.710592 -8.728683 0.000001 0.000004 0.000006 -0.173524 -1.599590 -6.751703 -8.207799 6.209463 -1.573788 46.354482 0.346925 -44.370007 -0.000003 -3.562873 7.319888 -28.124318 -3.044376 -44.423603 -0.000011 -0.974635 -0.012855 8.565765 10.710616 -8.728683 -0.000001 0.000003 -0.000001 0.222769 
476.369598 92.855881 0.496218 0.810731 3.377110 -6.666737 0.131467 10.181526 -0.000004 -2.436979 8.196686 -10.489600 -2.841346 19.114763 -0.000004 1.453509 0.991092 1.373008 -2.049071 16.740334 -0.000004 -5.327415 -2.661549 -2.785246 1.685047 9.617864 0.000024 4.023004 -9.437409 19.610385 -2.160905 11.014884 4.569997 3.608733 5.115847 -1.762548 -2.232115 -0.524806 10.592884 63.594546 -12.829248 -16.609519 0.000029 0.000033 27.841497 -0.000102 102.437224 0.000316 0.000003 -0.000021 28.328808 -19.673680 -1.427620 -12.656919 -2.160858 11.014688 -4.570407 -10.032925 -10.859608 -5.363632 -2.232108 -0.524612 -10.592421 -61.845314 37.873180 -7.933255 0.000024 0.000005 -27.841448 -0.000140 -82.582117 -0.000364 0.000058 0.000039 -28.328785 13.706374 5.179938 26.059979 -1.599590 -6.751742 8.207794 3.008922 -5.257886 -6.037209 0.346012 -44.370171 -0.000010 -5.215144 1.348308 -98.043541 -3.043555 -44.423634 -0.000010 6.133189 -1.550086 -22.302154 10.710594 -8.728693 -0.000008 -0.000003 -0.000001 -0.096399 -1.599590 -6.751733 -8.207804 -2.264444 0.203591 39.645399 0.346919 -44.370022 -0.000010 -4.072111 6.351551 -20.528543 -3.044341 -44.423611 -0.000002 -1.645891 0.117816 4.389658 10.710558 -8.728660 0.000010 -0.000003 -0.000005 1.974220 
499.527893 90.411346 0.152242 4.323521 7.073168 -7.586640 0.131475 10.181540 0.000008 -7.412484 1.017552 -14.321145 -2.841385 19.114767 0.000009 3.381199 -0.007403 3.249432 -2.048978 16.740383 0.000005 -5.389326 -1.628328 -3.170473 1.685002 9.617911 0.000013 3.635871 -5.794987 22.371988 -2.160777 11.014880 4.570004 4.253232 5.989328 -2.010556 -2.232106 -0.524776 10.592894 63.405875 -27.076936 -14.335901 0.000042 0.000015 27.841473 0.000499 85.946060 -0.000745 0.000032 -0.000021 28.328840 -17.949244 -0.814357 -18.338979 -2.160736 11.014729 -4.570398 -10.698124 -11.199480 -5.674280 -2.232118 -0.524595 -10.592384 -61.522294 18.447158 -7.258702 0.000057 0.000001 -27.841501 0.000502 -97.149776 0.000789 0.000019 -0.000008 -28.328806 10.683076 11.953012 12.408329 -1.599625 -6.751705 8.207802 -3.216996 -6.741605 8.653155 0.345954 -44.370167 -0.000008 -4.943808 -0.401822 -128.266554 -3.043489 -44.423615 -0.000007 -5.722212 0.930710 -9.307754 10.710570 -8.728661 -0.000001 -0.000001 -0.000003 -0.216574 -1.599607 -6.751678 -8.207800 -6.887932 -1.662840 38.274297 0.346963 -44.370037 -0.000007 -3.647545 4.441923 -39.949585 -3.044396 -44.423615 -0.000005 8.207715 0.368295 8.872501 10.710680 -8.728710 0.000005 0.000001 -0.000007 0.885847 
